Coordinates
version=1
nRows=4
nColumns=60
inDegrees=yes

Units are S.I. units (second, meters, Newtons, ...)
If the header above contains a line with 'inDegrees', this indicates whether rotational values are in degrees (yes) or radians (no).

endheader
time	pelvis_tilt	pelvis_list	pelvis_rotation	pelvis_tx	pelvis_ty	pelvis_tz	hip_flexion_r	hip_adduction_r	hip_rotation_r	knee_angle_r_beta	knee_angle_r	ankle_angle_r	subtalar_angle_r	mtp_angle_r	hip_flexion_l	hip_adduction_l	hip_rotation_l	knee_angle_l_beta	knee_angle_l	ankle_angle_l	subtalar_angle_l	mtp_angle_l	L5_S1_Flex_Ext	L5_S1_Lat_Bending	L5_S1_axial_rotation	L4_L5_Flex_Ext	L4_L5_Lat_Bending	L4_L5_axial_rotation	L3_L4_Flex_Ext	L3_L4_Lat_Bending	L3_L4_axial_rotation	L2_L3_Flex_Ext	L2_L3_Lat_Bending	L2_L3_axial_rotation	L1_L2_Flex_Ext	L1_L2_Lat_Bending	L1_L2_axial_rotation	L1_T12_Flex_Ext	L1_T12_Lat_Bending	L1_T12_axial_rotation	Abs_r3	Abs_r2	Abs_r1	Abs_t1	Abs_t2	arm_flex_r	arm_add_r	arm_rot_r	elbow_flex_r	pro_sup_r	wrist_flex_r	wrist_dev_r	arm_flex_l	arm_add_l	arm_rot_l	elbow_flex_l	pro_sup_l	wrist_flex_l	wrist_dev_l
      1.88000000	      1.53467470	     -8.33823715	     96.57417554	      0.40636626	      0.88144363	      0.38249051	     36.16952895	     -5.81115601	     -2.53282202	      0.62339385	    -35.71783643	      9.40623939	      0.00000000	      0.00000000	     37.63080824	     -4.70997548	      4.11833896	      0.57912160	    -33.18122373	      7.45808187	      0.00000000	      0.00000000	     -9.93202460	      0.45027252	     -0.05080655	    -18.44476289	      0.59886246	     -0.05398196	    -16.31732322	      1.09479261	     -0.05398196	    -11.35131092	      1.09479261	     -0.04445573	     -9.22287804	      0.91819573	     -0.04128032	     -5.67515886	      0.69747214	     -0.03810491	    -70.94345852	      5.09357284	     -0.28257077	      0.00000000	      0.00000000	     62.17508704	    -19.97922305	     23.71265963	     54.12884584	     61.23558338	    -19.40332911	     22.87462474	     69.77185879	    -17.54134981	     38.73862379	     47.68918859	     51.46868929	    -19.84532661	     18.52054903
      1.89000000	      1.53711177	     -7.83602529	     96.55221430	      0.40636220	      0.88388957	      0.38041150	     35.12701409	     -5.69569006	     -2.58424361	      0.61211021	    -35.07133168	      9.33844055	      0.00000000	      0.00000000	     36.62803032	     -4.79276708	      4.12513744	      0.56929393	    -32.61813951	      7.45558591	      0.00000000	      0.00000000	     -9.88452652	      0.45171706	     -0.04644734	    -18.35655419	      0.60078368	     -0.04935029	    -16.23928861	      1.09830485	     -0.04935029	    -11.29702536	      1.09830485	     -0.04064142	     -9.17877132	      0.92114142	     -0.03773846	     -5.64801845	      0.69970972	     -0.03483550	    -70.60418445	      5.10991368	     -0.25832615	      0.00000000	      0.00000000	     60.86133001	    -20.19568270	     23.65928163	     54.78714630	     61.20001545	    -19.64016529	     22.87712652	     68.42480105	    -17.75484983	     38.34875598	     48.46641940	     51.88349687	    -20.09715977	     18.70778787
      1.90000000	      1.55991310	     -7.10983132	     96.53288637	      0.40636372	      0.88676605	      0.37821697	     33.77484641	     -5.48587601	     -2.44707169	      0.59904641	    -34.32283118	      9.19436791	      0.00000000	      0.00000000	     35.32721860	     -4.89289688	      4.32168884	      0.55776341	    -31.95748929	      7.40409297	      0.00000000	      0.00000000	     -9.88150186	      0.45754134	     -0.03784245	    -18.35093710	      0.60852998	     -0.04020760	    -16.23431940	      1.11246601	     -0.04020760	    -11.29356847	      1.11246601	     -0.03311214	     -9.17596262	      0.93301830	     -0.03074699	     -5.64629016	      0.70873153	     -0.02838184	    -70.58257962	      5.17579912	     -0.21046834	      0.00000000	      0.00000000	     59.57952789	    -20.47602933	     23.49510514	     55.75522331	     61.25159916	    -19.94768336	     23.23505904	     66.99879945	    -18.01859944	     37.49089415	     49.65995718	     52.75935987	    -20.43067335	     19.40438471
      1.91000000	      1.55412119	     -6.71577829	     96.49504842	      0.40636879	      0.88897994	      0.37603825	     32.87516816	     -5.42018919	     -2.63503941	      0.58869515	    -33.72974764	      9.19662102	      0.00000000	      0.00000000	     34.45017808	     -4.99207515	      4.17586832	      0.54869513	    -31.43791546	      7.46894329	      0.00000000	      0.00000000	     -9.79560642	      0.45499859	     -0.04000662	    -18.19142068	      0.60514813	     -0.04250703	    -16.09320178	      1.10628358	     -0.04250703	    -11.19539857	      1.10628358	     -0.03500579	     -9.09620012	      0.92783313	     -0.03250538	     -5.59720951	      0.70479282	     -0.03000496	    -69.96903708	      5.14703507	     -0.22250479	      0.00000000	      0.00000000	     58.18971008	    -20.55348988	     23.43540738	     56.13409499	     61.25347218	    -20.09957589	     23.03802835	     65.60288623	    -18.17815339	     37.25198307	     50.13439606	     53.02500659	    -20.55322305	     19.35063148
